<svg width="27" height="28" viewBox="0 0 27 28" fill="none" xmlns="http://www.w3.org/2000/svg">
<path d="M24.8394 27.4037L15.2514 17.6031C14.5222 18.249 13.6716 18.7521 12.6994 19.1123C11.7272 19.4726 10.6943 19.6527 9.60061 19.6527C6.97574 19.6527 4.75189 18.7211 2.92906 16.8578C1.10624 14.9946 0.194824 12.7463 0.194824 10.113C0.194824 7.4796 1.10624 5.23131 2.92906 3.36808C4.75189 1.50486 6.96359 0.573242 9.56415 0.573242C12.1404 0.573242 14.3339 1.50486 16.1446 3.36808C17.9552 5.23131 18.8606 7.4796 18.8606 10.113C18.8606 11.1812 18.6904 12.2122 18.3502 13.2059C18.0099 14.1996 17.4995 15.1312 16.819 16.0008L26.4435 25.7641L24.8394 27.4037ZM9.56415 17.4168C11.5328 17.4168 13.2098 16.7026 14.5952 15.2741C15.9805 13.8456 16.6732 12.1252 16.6732 10.113C16.6732 8.10068 15.9805 6.3803 14.5952 4.95182C13.2098 3.52335 11.5328 2.80911 9.56415 2.80911C7.5712 2.80911 5.87597 3.52335 4.47847 4.95182C3.08097 6.3803 2.38222 8.10068 2.38222 10.113C2.38222 12.1252 3.08097 13.8456 4.47847 15.2741C5.87597 16.7026 7.5712 17.4168 9.56415 17.4168Z" fill="#76869B"/>
</svg>
