<svg width="37" height="36" viewBox="0 0 37 36" fill="none" xmlns="http://www.w3.org/2000/svg">
<path d="M0.558594 35.0448V3.10688C0.558594 2.28267 0.848102 1.56149 1.42712 0.943342C2.00613 0.325189 2.68165 0.0161133 3.45367 0.0161133H28.5443C29.3164 0.0161133 29.9919 0.325189 30.5709 0.943342C31.1499 1.56149 31.4394 2.28267 31.4394 3.10688V14.5942C31.1177 14.5255 30.8041 14.4826 30.4985 14.4654C30.1929 14.4483 29.8632 14.4397 29.5094 14.4397C29.3485 14.4397 29.1877 14.4397 29.0269 14.4397C28.866 14.4397 28.7052 14.4568 28.5443 14.4912V3.10688H3.45367V25.7725H17.9773C17.9451 25.9442 17.9291 26.1073 17.9291 26.2618C17.9291 26.4164 17.9291 26.5967 17.9291 26.8027C17.9291 27.1805 17.9371 27.5325 17.9532 27.8587C17.9693 28.185 18.0095 28.5198 18.0738 28.8632H6.34875L0.558594 35.0448ZM8.2788 11.3489V8.25815H23.7192V11.3489H8.2788ZM8.2788 20.1061V17.0153H17.9291V20.1061H8.2788ZM28.0618 34.5296V28.3481H22.2717V25.2573H28.0618V19.0758H30.9569V25.2573H36.7471V28.3481H30.9569V34.5296H28.0618Z" fill="#F2F5FA"/>
</svg>
