<svg width="22" height="40" viewBox="0 0 22 40" fill="none" xmlns="http://www.w3.org/2000/svg">
<path d="M11 40C7.96667 40 5.375 38.9583 3.225 36.875C1.075 34.7917 0 32.2333 0 29.2V7.7C0 5.56667 0.758333 3.75 2.275 2.25C3.79167 0.75 5.61667 0 7.75 0C9.91667 0 11.75 0.75 13.25 2.25C14.75 3.75 15.5 5.58333 15.5 7.75V27.45C15.5 28.7167 15.0667 29.7917 14.2 30.675C13.3333 31.5583 12.2667 32 11 32C9.73333 32 8.66667 31.525 7.8 30.575C6.93333 29.625 6.5 28.5 6.5 27.2V7.6H8.5V27.35C8.5 28.0833 8.74167 28.7083 9.225 29.225C9.70833 29.7417 10.3 30 11 30C11.7 30 12.2917 29.75 12.775 29.25C13.2583 28.75 13.5 28.15 13.5 27.45V7.7C13.5 6.1 12.9417 4.75 11.825 3.65C10.7083 2.55 9.35 2 7.75 2C6.15 2 4.79167 2.55 3.675 3.65C2.55833 4.75 2 6.1 2 7.7V29.3C2 31.7333 2.88333 33.7917 4.65 35.475C6.41667 37.1583 8.53333 38 11 38C13.5 38 15.625 37.15 17.375 35.45C19.125 33.75 20 31.6667 20 29.2V7.6H22V29.15C22 32.1833 20.925 34.75 18.775 36.85C16.625 38.95 14.0333 40 11 40Z" fill="#F2F5FA"/>
</svg>
