<svg width="42" height="43" viewBox="0 0 42 43" fill="none" xmlns="http://www.w3.org/2000/svg">
<path d="M38.8662 42.0332L23.8996 26.6855C22.7615 27.697 21.4336 28.4848 19.9161 29.0489C18.3986 29.613 16.7862 29.8951 15.079 29.8951C10.9817 29.8951 7.51036 28.4362 4.66501 25.5183C1.81965 22.6005 0.396973 19.0797 0.396973 14.9558C0.396973 10.832 1.81965 7.31115 4.66501 4.39333C7.51036 1.47551 10.9627 0.0166016 15.0221 0.0166016C19.0435 0.0166016 22.4674 1.47551 25.2938 4.39333C28.1202 7.31115 29.5334 10.832 29.5334 14.9558C29.5334 16.6287 29.2678 18.2432 28.7367 19.7994C28.2056 21.3556 27.4089 22.8145 26.3466 24.1761L41.3701 39.4655L38.8662 42.0332ZM15.0221 26.3937C18.0951 26.3937 20.7128 25.2752 22.8753 23.0382C25.0377 20.8012 26.119 18.1071 26.119 14.9558C26.119 11.8046 25.0377 9.11047 22.8753 6.87348C20.7128 4.63648 18.0951 3.51798 15.0221 3.51798C11.9112 3.51798 9.265 4.63648 7.08356 6.87348C4.90212 9.11047 3.8114 11.8046 3.8114 14.9558C3.8114 18.1071 4.90212 20.8012 7.08356 23.0382C9.265 25.2752 11.9112 26.3937 15.0221 26.3937Z" fill="#F2F5FA"/>
</svg>
